<svg width="89" height="90" viewBox="0 0 89 90" fill="none" xmlns="http://www.w3.org/2000/svg">
<rect y="0.5" width="89" height="89" rx="11" fill="#F4F4F4"/>
<path d="M66.5642 62.5452C64.8082 60.7761 60.5553 58.1942 58.4919 57.1537C55.8048 55.8003 55.5837 55.6898 53.4716 57.2588C52.0628 58.3059 51.1262 59.2413 49.4775 58.8897C47.8287 58.5381 44.2459 56.5555 41.1088 53.4286C37.9716 50.3016 35.874 46.6151 35.5212 44.972C35.1685 43.3289 36.1194 42.4034 37.1567 40.9914C38.6185 39.0011 38.508 38.6694 37.2584 35.9825C36.2842 33.8927 33.627 29.6799 31.8511 27.9328C29.9513 26.0564 29.9513 26.3881 28.7272 26.8968C27.7306 27.316 26.7745 27.8257 25.8709 28.4193C24.1016 29.5947 23.1197 30.5711 22.433 32.0384C21.7463 33.5057 21.4378 36.9456 24.9841 43.3875C28.5304 49.8294 31.0184 53.1234 36.1681 58.2584C41.3178 63.3933 45.2776 66.1543 51.0665 69.4007C58.2276 73.4112 60.9744 72.6294 62.4462 71.9439C63.9181 71.2583 64.8989 70.2853 66.0766 68.5161C66.6718 67.6141 67.1826 66.6591 67.6026 65.6634C68.1123 64.4438 68.4441 64.4438 66.5642 62.5452Z" fill="#F9EAB6"/>
<path d="M68.7203 55.6273C67.1551 54.0504 63.3645 51.7492 61.5254 50.8218C59.1304 49.6155 58.9333 49.517 57.0508 50.9154C55.7951 51.8487 54.9603 52.6825 53.4908 52.3691C52.0212 52.0557 48.8279 50.2886 46.0317 47.5015C43.2356 44.7144 41.3659 41.4287 41.0515 39.9642C40.7371 38.4997 41.5847 37.6748 42.5092 36.4162C43.8122 34.6423 43.7136 34.3466 42.5999 31.9518C41.7316 30.0891 39.3632 26.3342 37.7803 24.7771C36.087 23.1046 36.087 23.4003 34.996 23.8536C34.1077 24.2273 33.2556 24.6816 32.4502 25.2107C30.8732 26.2583 29.998 27.1286 29.3859 28.4364C28.7739 29.7442 28.4989 32.8102 31.6597 38.5519C34.8205 44.2936 37.0381 47.2295 41.6281 51.8064C46.218 56.3832 49.7475 58.8441 54.9071 61.7376C61.2898 65.3121 63.7381 64.6154 65.0499 64.0043C66.3617 63.3933 67.236 62.526 68.2856 60.9492C68.8162 60.1452 69.2715 59.294 69.6458 58.4065C70.1001 57.3194 70.3958 57.3194 68.7203 55.6273Z" stroke="#7EB693" stroke-width="3" stroke-miterlimit="10"/>
</svg>
